<svg width="500" height="500" fill="none" xmlns="http://www.w3.org/2000/svg"><rect x="192.85" y="33.98" width="316" height="316" rx="67.5" transform="rotate(30 192.85 33.98)" fill="#313244" stroke="#6C7086" stroke-width="5"/><path fill-rule="evenodd" clip-rule="evenodd" d="M256.41 128.53c16.6-.16 34.29 4.67 53.04 15.5 61.2 35.33 60.98 93.52 54.05 117.75l-20.19-5.77c5.17-18.05 6-64.72-44.36-93.8-16.1-9.3-30.12-12.8-42.32-12.68-12.19.13-23.29 3.88-33.56 10.25-20.95 12.99-37.87 36.45-51.45 59.98-24.96 43.23-13.38 92.15 26.47 115.16 42.3 24.43 74.42 15.12 89.63-2.92 6.78-8.05 8.63-17.68 6.63-28.07a54.2 54.2 0 0 0-4-12.26l-.64.73c-10.85 12.42-26.21 21.8-44.17 21.16-22.7-.81-39.61-12.4-47.2-28.07-7.57-15.6-5.43-34.83 9.12-47.72l.62-.56.7-.45c14.24-9.04 30.5-9.16 45.19-4.44 12.17 3.91 23.75 11.24 33.48 20.4.67-2.6 1.17-5.2 1.47-7.77 1.38-11.9-1.5-21.6-7.97-27.55-6.4-5.9-18.83-10.4-41.64-6.42l-3.61-20.68c26.32-4.6 46.44-.35 59.48 11.65 12.99 11.96 16.46 29.32 14.6 45.42a82.64 82.64 0 0 1-6.71 24c5.73 8.84 9.98 18.58 11.9 28.6 2.98 15.5.35 31.86-11.2 45.56-23.46 27.84-67.57 35.65-116.18 7.58-51.09-29.5-64.2-91.81-34.16-143.85 13.92-24.1 32.98-51.46 58.57-67.32 13-8.06 27.8-13.23 44.41-13.4Zm21.68 144.65-.6-.66c-8.72-9.57-19.45-16.83-29.95-20.2-10.06-3.24-19.23-2.74-26.76 1.72-6.22 5.97-7.34 14.48-3.55 22.3 3.88 8 13.37 15.67 29.06 16.24 9.77.35 19.5-4.72 27.61-14 1.49-1.7 2.89-3.5 4.19-5.4Z" fill="#CDD6F4"/><path d="m291.31 460.45 20.14-5.4-19.27-69.86-19.62 5.26 18.75 70Z" fill="#F38BA8"/><path fill-rule="evenodd" clip-rule="evenodd" d="m267.16 370.31-15.8-58.93a70.88 70.88 0 0 0-34.03 30.03 70.87 70.87 0 0 0-8.95 44.65l58.78-15.75Zm-12.25-7.07-9.94-37.12A60.96 60.96 0 0 0 226 346.4a60.95 60.95 0 0 0-8.1 26.76l37.01-9.92Zm16.63-57.05a70.9 70.9 0 0 1 43.07 9.15 70.88 70.88 0 0 1 30.09 34.2l-57.57 15.42-15.6-58.77Zm12.95 9.84 9.73 36.68 35.77-9.59A60.95 60.95 0 0 0 309.6 324a60.97 60.97 0 0 0-25.1-7.97Zm-70.46 90.1a70.9 70.9 0 0 0 29.37 32.53 70.87 70.87 0 0 0 44.48 9l-15.32-57.2-58.53 15.68Zm51.46-3.43-36.4 9.75A60.97 60.97 0 0 0 248.4 430a60.94 60.94 0 0 0 26.57 8.08l-9.48-35.38Zm-63.44 17a88.22 88.22 0 0 1-10.98-39.35A87.56 87.56 0 0 1 202.8 333a87.58 87.58 0 0 1 44.2-37.97 88.5 88.5 0 0 1 30.33-6.02 87.58 87.58 0 0 1 45.66 11.78 87.57 87.57 0 0 1 38.04 44.36 88.56 88.56 0 0 1 5.96 30.34 87.56 87.56 0 0 1-11.8 45.5 87.57 87.57 0 0 1-42.83 37.42 88.55 88.55 0 0 1-30.2 6.52 87.58 87.58 0 0 1-47.15-11.74 87.57 87.57 0 0 1-32.95-33.5Zm90.13-34.5 15.7 56.9a70.89 70.89 0 0 0 32.79-29.49 70.88 70.88 0 0 0 9.17-42.86l-57.66 15.44Zm47.77-2.45-35.45 9.5 9.63 34.89A60.96 60.96 0 0 0 332 407.6a60.97 60.97 0 0 0 7.95-24.85Zm23.9 43.24c-27.05 46.87-86.98 62.93-133.84 35.87-46.87-27.06-62.92-86.99-35.87-133.85 27.06-46.87 86.99-62.92 133.85-35.87 46.87 27.06 62.93 86.99 35.87 133.85Z" fill="#313244"/><path fill-rule="evenodd" clip-rule="evenodd" d="M340.66 412.6a71.2 71.2 0 1 1-89.3-101.22l15.8 58.93 19.97-5.35-15.6-58.77a71.2 71.2 0 0 1 69.13 106.42Zm14.54 8.4A87.98 87.98 0 1 1 202.8 333 87.98 87.98 0 0 1 355.2 421Z" fill="#F38BA8"/><path d="M349.84 369.75a71.6 71.6 0 0 0-5.14-20.21l-57.57 15.42-19.97 5.35-58.79 15.75c.9 6.93 2.8 13.7 5.66 20.08l58.53-15.69 19.62-5.26 57.66-15.44Z" fill="#F38BA8"/></svg>